<svg width="60" height="60" viewBox="0 0 60 60" fill="none" xmlns="http://www.w3.org/2000/svg">
<rect width="60" height="60" rx="14" fill="#00ADB5"/>
<path d="M22.0833 36.3333C22.0833 37.2042 21.3708 37.9167 20.5 37.9167C19.6292 37.9167 18.9167 37.2042 18.9167 36.3333C18.9167 35.4625 19.6292 34.75 20.5 34.75C21.3708 34.75 22.0833 35.4625 22.0833 36.3333ZM25.25 36.3333C24.3792 36.3333 23.6667 37.0458 23.6667 37.9167C23.6667 38.7875 24.3792 39.5 25.25 39.5C26.1208 39.5 26.8333 38.7875 26.8333 37.9167C26.8333 37.0458 26.1208 36.3333 25.25 36.3333ZM17.3333 39.5C16.4625 39.5 15.75 40.2125 15.75 41.0833C15.75 41.9542 16.4625 42.6667 17.3333 42.6667C18.2042 42.6667 18.9167 41.9542 18.9167 41.0833C18.9167 40.2125 18.2042 39.5 17.3333 39.5ZM22.0833 41.0833C21.2125 41.0833 20.5 41.7958 20.5 42.6667C20.5 43.5375 21.2125 44.25 22.0833 44.25C22.9542 44.25 23.6667 43.5375 23.6667 42.6667C23.6667 41.7958 22.9542 41.0833 22.0833 41.0833ZM35.2725 15.3067L26.5167 26.2792L32.1217 31.8842L43.11 23.1442C44.535 21.9408 44.6458 19.7717 43.3158 18.4417L39.975 15.1008C38.645 13.7708 36.4758 13.8817 35.2725 15.3067ZM24.2842 30.7917L27.625 34.1167C28.2583 34.75 29.2717 34.75 29.8892 34.1167L30.9975 33.0083L25.4083 27.4033L24.2842 28.5275C23.9873 28.8295 23.821 29.2361 23.821 29.6596C23.821 30.0831 23.9873 30.4896 24.2842 30.7917Z" fill="white"/>
</svg>
